<svg width="505" height="60" viewBox="0 0 505 60" fill="none" xmlns="http://www.w3.org/2000/svg">
<g clip-path="url(#clip0_11464_118)">
<path d="M108.135 0V56.2682L120.075 60V12.8817C120.075 11.5253 120.075 10.8495 120.737 10.17C121.068 9.49316 121.729 9.49328 122.392 9.83171C124.05 10.5086 125.049 11.8656 125.049 14.5784V33.2165C129.028 35.2498 132.339 35.2498 134.993 33.2165C137.647 31.1833 138.975 28.1362 138.975 23.0517C138.978 17.6288 137.98 14.2386 135.66 11.5285C133.671 8.81567 130.026 6.44153 124.718 4.7467C118.087 2.71345 112.447 1.01796 108.135 0ZM104.821 35.2568L89.5664 40.6801L87.2497 41.695C83.6027 43.3898 81.6133 45.0852 81.6133 46.78C81.9444 48.8133 82.6067 51.5286 87.5807 53.2234C92.2235 54.9183 95.871 55.5953 105.157 52.8851V46.78C96.199 49.8286 94.8749 49.4919 93.548 48.8151C92.2211 48.1382 92.219 47.4567 92.55 47.1183C93.5459 46.4414 97.193 45.0833 97.193 45.0833L104.821 42.3716V35.2568ZM138.562 37.8956C137.485 37.8585 136.407 37.8786 135.329 37.9632C131.682 37.9632 128.363 38.642 124.382 39.66V46.78L131.679 44.0631L135.655 42.7099C135.655 42.7099 137.317 42.3717 138.313 42.0333C139.971 41.6949 141.959 42.3716 141.959 42.3716C142.954 42.3716 143.618 42.707 143.618 43.3865C143.949 44.0634 143.286 44.4064 141.628 45.0833L137.982 46.4417L124.718 51.5215V58.6416L130.686 56.6065L147.264 50.5066L149.255 49.4865C153.233 48.1301 154.891 46.4347 154.56 44.4015C154.56 42.3709 152.24 41.0163 148.262 39.66C145.028 38.6427 141.796 38.0067 138.562 37.8956Z" fill="white"/>
<path fill-rule="evenodd" clip-rule="evenodd" d="M320.01 22.1538C320.01 18.9231 317.462 16.3846 314.45 16.3846C311.207 16.3846 308.89 18.9231 308.89 22.1538C308.89 25.3846 311.438 27.9231 314.45 27.9231C317.693 27.9231 320.01 25.3846 320.01 22.1538ZM306.805 22.1538C306.805 18 310.28 14.5385 314.45 14.5385C318.62 14.5385 322.095 18 322.095 22.1538C322.095 26.3077 318.62 29.7692 314.45 29.7692C310.28 29.7692 306.805 26.5385 306.805 22.1538ZM289.662 44.0769C290.357 45.4615 291.516 46.6154 292.906 47.3077C296.149 48.6923 299.855 47.0769 301.245 43.8461C301.94 42.2308 301.94 40.6154 301.245 39C300.55 37.3846 299.392 36.2308 297.771 35.5385C296.149 34.8461 294.527 34.8461 293.137 35.5385L296.844 37.1538C299.16 38.0769 300.319 40.8461 299.392 43.3846C298.466 45.6923 295.686 46.8461 293.137 45.9231L289.662 44.0769ZM304.489 60C290.821 60 279.238 50.7692 275.531 38.0769L287.114 42.9231C287.809 46.8461 291.284 49.8461 295.454 49.8461C300.087 49.8461 304.025 45.9231 304.025 41.3077C304.025 41.0769 304.025 41.0769 304.025 40.8461L314.218 33.4615H314.45C320.705 33.4615 325.801 28.3846 325.801 22.1538C325.801 15.9231 320.705 10.8462 314.45 10.8462C308.195 10.8462 303.099 15.9231 303.099 22.1538C303.099 22.1538 303.099 22.1538 303.099 22.3846L295.917 32.7692C295.686 32.7692 295.686 32.7692 295.454 32.7692C293.601 32.7692 291.979 33.2308 290.589 34.1538L274.605 27.6923C275.763 12.2308 288.736 0 304.489 0C321.168 0 334.605 13.3846 334.605 30C334.605 46.6154 321.168 60 304.489 60Z" fill="white"/>
<path fill-rule="evenodd" clip-rule="evenodd" d="M200.722 4.23993C206.494 3.93752 213.994 8.41121 214.549 8.52118C214.634 8.53368 215.809 8.01383 217.164 7.34902C224.894 3.58762 228.537 4.22744 230.157 4.29991C222.427 -0.453693 211.684 -1.74832 201.859 2.88533C199.029 4.22744 198.957 4.32491 200.722 4.23993ZM244.143 24.1115C242.1 14.4368 235.978 8.35107 235.118 8.35107C234.235 8.35107 232.19 9.13834 230.765 10.0331C227.945 11.7876 225.803 13.8295 222.983 16.4187C228.113 22.8643 235.35 33.2788 237.853 40.8866C238.675 43.3908 239.025 45.8576 238.748 47.2122C238.543 48.2394 238.543 48.2394 238.915 47.7695C239.655 46.8348 241.325 43.9832 241.99 42.5061C242.885 40.5467 243.803 37.645 244.24 35.4057C244.76 32.684 244.713 26.8432 244.143 24.1115ZM206.445 16.4315C202.855 13.1775 199.417 9.91343 195.992 8.76377C194.155 8.14645 194.02 8.18394 192.522 9.74348C188.99 13.4199 186.047 19.3832 185.227 24.5467C184.572 28.6829 184.487 29.8451 184.717 31.8645C185.395 37.9727 186.812 42.1915 189.617 46.4877C190.767 48.2522 191.082 48.5796 190.742 47.6824C190.235 46.3528 190.705 43.1487 191.892 39.9447C193.622 35.226 198.412 26.2886 206.445 16.4315ZM228.38 37.5254C233.74 44.0909 236.205 49.4719 234.96 51.8812C234.005 53.7056 228.1 57.2746 223.757 58.6417C220.177 59.7663 215.482 60.2512 211.61 59.8738C206.99 59.4289 202.31 57.7694 198.29 55.1602C194.917 52.9583 194.155 52.0486 194.155 50.2491C194.155 46.6302 198.135 40.292 204.945 33.0617C208.817 28.9604 214.202 24.1468 214.792 24.2817C215.93 24.5341 224.992 33.3641 228.38 37.5254Z" fill="white"/>
<path fill-rule="evenodd" clip-rule="evenodd" d="M411.759 27.2141C413.653 27.7115 415.194 29.1477 415.835 30.9886C416.239 32.1249 416.225 33.7976 415.82 34.8412C415.074 36.7626 413.629 38.1061 411.759 38.6011C408.732 39.3862 405.507 37.5599 404.632 34.5535C404.371 33.6391 404.383 32.0859 404.685 31.1325C405.585 28.1674 408.732 26.4167 411.759 27.2141ZM398.82 0.819052C398.769 0.858158 398.743 13.9837 398.743 30.0084C398.743 56.4302 398.757 59.1075 398.937 59.1856C399.264 59.3051 408.663 59.2636 409.828 59.132C414.75 58.5735 419.098 55.5817 421.448 51.1415C421.748 50.566 422.152 49.6126 422.362 49.025C423.118 46.7525 423.106 47.3523 423.106 29.945C423.106 16.0489 423.081 13.9715 422.908 13.0961C421.709 6.7881 416.89 2.02119 410.572 0.938597C409.724 0.794738 408.417 0.753302 404.2 0.753302C401.275 0.741044 398.859 0.780048 398.82 0.819052ZM378.168 12.8743C377.41 13.0181 376.249 13.6057 375.623 14.1422C374.355 15.2394 373.717 16.8049 373.822 18.6482C373.873 19.5992 373.926 19.8625 374.316 20.6331C374.889 21.8082 375.74 22.6691 376.915 23.2445C377.724 23.6492 377.931 23.6882 378.991 23.7272C379.942 23.7663 380.283 23.7272 380.922 23.5054C383.547 22.6178 385.139 20.0698 384.683 17.4461C384.174 14.3519 381.21 12.2622 378.168 12.8743ZM388.076 30.0084V54.5478L383.142 54.4845C378.599 54.4332 378.114 54.4064 377.2 54.1845C373.297 53.1775 370.411 50.1759 369.59 46.255C369.329 45.0286 369.329 14.898 369.575 13.6984C370.306 10.2896 372.671 7.4684 375.845 6.20051C377.436 5.56165 378.182 5.48121 383.364 5.46895L388.049 5.4568V30.0084H388.076ZM377.122 0.938597C371.299 1.98219 366.614 6.29067 365.137 11.9598C364.603 14.0105 364.564 15.2126 364.63 31.0935C364.654 45.6699 364.669 46.0087 364.915 47.1426C366.26 53.2189 370.57 57.5397 376.705 58.9637C377.5 59.1465 378.519 59.1856 385.075 59.2124C391.849 59.2636 392.554 59.2514 392.737 59.0685C392.919 58.8857 392.932 56.5473 392.932 30.0499C392.932 10.3944 392.895 1.14821 392.817 0.977601C392.7 0.753201 392.49 0.741044 385.387 0.753201C379.615 0.767891 377.88 0.806895 377.122 0.938597Z" fill="white"/>
<path fill-rule="evenodd" clip-rule="evenodd" d="M47.8595 39.1497L45.2383 34.9649H37.5847L40.21 30.7733H42.6284L39.7053 26.1066L31.5524 39.1497H9.80189L15.0392 30.7733H11.1941L13.8079 26.5814H30.6207L28.0048 30.7733H19.9865L17.365 34.9649H29.2272L39.7053 18.1955L52.8012 39.1497H47.8595ZM19.0467 18.1955H36.293L33.6716 22.3892H16.4273L19.0467 18.1955ZM30.9993 0C14.432 0 1 13.433 1 30.0007C1 46.573 14.432 60 30.9993 60C47.5665 60 61 46.573 61 30.0007C61 13.433 47.5665 0 30.9993 0Z" fill="white"/>
<path fill-rule="evenodd" clip-rule="evenodd" d="M476.488 18.5852V12.994C476.488 12.1066 476.077 11.6948 475.224 11.6948H473.832V19.8902H475.224C476.088 19.8902 476.488 19.4784 476.488 18.5852Z" fill="white"/>
<path fill-rule="evenodd" clip-rule="evenodd" d="M471.412 40.3989H471.505H471.598H471.691H471.783H471.87H471.963H472.044H472.137H472.23H472.323H472.416H472.508H472.601H472.688H472.781L472.746 40.3177L472.717 40.2307L472.682 40.1379L472.642 40.0567L472.619 39.9755L472.578 39.8885L472.543 39.7957L472.514 39.7145L472.479 39.6333L472.445 39.5463L472.416 39.4651L472.375 39.3723L472.352 39.2911L472.311 39.2041L472.276 39.1229L472.247 39.0359L472.213 38.9431L472.178 38.8619L472.149 38.7807L472.108 38.6995L472.073 38.6009L472.044 38.5197L472.01 38.4385L471.975 38.5197L471.946 38.6009L471.911 38.6995L471.87 38.7807L471.847 38.8619L471.807 38.9431L471.772 39.0359L471.737 39.1229L471.708 39.2041L471.673 39.2911L471.633 39.3723L471.604 39.4651L471.569 39.5463L471.534 39.6333L471.505 39.7145L471.47 39.7957L471.43 39.8885L471.395 39.9755L471.366 40.0567L471.331 40.1379L471.296 40.2307L471.267 40.3177L471.227 40.3989H471.319H471.412Z" fill="white"/>
<path fill-rule="evenodd" clip-rule="evenodd" d="M499.31 1H458.409C455.091 1 453.867 2.22379 453.867 5.54136V45.561C453.867 45.9322 453.867 46.2802 453.914 46.605C453.901 47.4158 454.172 48.2056 454.679 48.838C454.743 48.9134 455.433 49.418 455.433 49.418C455.804 49.6036 456.054 49.737 456.471 49.9052L476.615 58.3499C477.659 58.8255 478.094 59.0111 478.853 58.9995C479.613 58.9995 480.054 58.8255 481.098 58.3499L501.247 49.911C501.665 49.7428 501.914 49.6094 502.285 49.4238C502.285 49.4238 502.97 48.9134 503.039 48.8438C503.543 48.2121 503.812 47.4247 503.799 46.6166C503.835 46.2698 503.852 45.9213 503.851 45.5726V5.55296C503.851 2.22379 502.627 1 499.31 1ZM481.411 8.70813H484.793V30.9451H481.411V8.70813ZM479.967 38.9375L480.008 39.0071L480.054 38.9375L480.1 38.8563L480.158 38.7809L480.205 38.6939L480.251 38.6243L480.298 38.5431L480.35 38.4677L480.396 38.3807L480.443 38.3111L480.489 38.2357L480.541 38.1545L480.588 38.0791L480.634 37.9979L480.68 37.9225L480.738 37.8413L480.785 37.7659L480.831 37.6847L480.872 37.6093L480.918 37.5339L480.976 37.4527L481.023 37.3773L481.069 37.2961L481.115 37.2207L481.168 37.1395L481.214 37.0641L481.26 36.9945L481.307 36.9075L481.359 36.8379L481.405 36.7509L481.452 36.6813L481.498 36.5943L481.556 36.5247L481.603 36.4377L481.649 36.3623H483.528V43.0844H481.707V39.1115L481.661 39.1869L481.603 39.2681L481.556 39.3435L481.504 39.4189L481.458 39.5001L481.4 39.5755L481.353 39.6451L481.307 39.7321L481.255 39.8075L481.208 39.8771L481.15 39.9525L481.127 40.0337L481.069 40.1091L481.023 40.1845L480.976 40.2657L480.924 40.3411L480.878 40.4165L480.82 40.4977L480.773 40.5731L480.721 40.6485L480.675 40.7297L480.628 40.805L480.57 40.8747L480.547 40.9617L480.489 41.037L480.443 41.1066L480.39 41.182L480.344 41.2632L480.298 41.3386L480.24 41.414L480.193 41.4952L480.141 41.5706L480.095 41.646L480.037 41.7272L479.99 41.8026H479.967L479.915 41.7214L479.868 41.646L479.81 41.559L479.764 41.4894L479.712 41.4024L479.665 41.3328L479.607 41.2458L479.561 41.1762L479.509 41.0893L479.439 41.0196L479.381 40.9385L479.341 40.8631L479.283 40.7818L479.236 40.7065L479.184 40.6253L479.138 40.5499L479.08 40.4687L479.027 40.3933L478.981 40.3121L478.923 40.2367L478.877 40.1555L478.807 40.0743V39.9873L478.749 39.9177L478.674 39.8597L478.621 39.7901L478.575 39.7031L478.517 39.6277L478.476 39.5465L478.418 39.4711L478.372 39.3899L478.32 39.2797L478.273 39.1985L478.215 39.1231V43.0786H476.487V36.3797H478.372L478.418 36.4551L478.465 36.5421L478.517 36.6117L478.563 36.6987L478.61 36.7683L478.656 36.8553L478.703 36.9249L478.755 37.0119L478.801 37.0815L478.848 37.1569L478.894 37.2381L478.94 37.3135L478.998 37.3947L479.045 37.4701L479.091 37.5513L479.132 37.6267L479.19 37.7021L479.236 37.7833L479.283 37.8587L479.329 37.9399L479.375 38.0153L479.428 38.0965L479.474 38.1719L479.52 38.2531L479.567 38.3285L479.613 38.3981L479.665 38.4851L479.712 38.5605L479.758 38.6417L479.805 38.7113L479.851 38.7983L479.909 38.8737L479.967 38.9375ZM470.461 8.70813H475.774C478.523 8.70813 479.88 10.0711 479.88 12.8377V18.7478C479.88 21.5086 478.523 22.8774 475.774 22.8774H473.842V30.9451H470.461V8.70813ZM461.239 8.70813H468.779V11.7879H464.626V18.0809H468.605V21.1606H464.626V27.8654H468.831V30.9451H461.239V8.70813ZM467.642 39.2797V42.1796L467.578 42.2318L467.509 42.2898L467.439 42.3362L467.369 42.3884L467.294 42.4348L467.219 42.4928L467.149 42.5392L467.074 42.5856L466.992 42.632L466.905 42.6784L466.824 42.7248L466.743 42.7596L466.662 42.806L466.569 42.8408L466.488 42.8756L466.395 42.9162L466.314 42.951L466.227 42.98H466.146H466.064H465.972H465.89H465.798H465.716H465.624H465.531H465.467H465.368H465.276H465.171H465.078H464.498H464.4H464.307H464.214H464.121H464.029H463.936H463.855H463.762H463.681H463.588H463.507L463.426 42.9452H463.339L463.252 42.9046L463.147 42.8814L463.066 42.8466L462.985 42.806L462.88 42.7596L462.811 42.719L462.73 42.6726L462.654 42.6262L462.567 42.5798L462.492 42.5218L462.422 42.4696L462.347 42.4116L462.283 42.3536L462.219 42.3014L462.155 42.2376L462.103 42.1796L462.039 42.1158L461.987 42.052L461.929 41.9882L461.877 41.9128L461.819 41.849L461.773 41.7736L461.72 41.6982L461.674 41.6286L461.628 41.5532L461.581 41.472L461.535 41.3966L461.5 41.3154L461.459 41.2284L461.407 41.1472V41.066V40.9906L461.367 40.9094V40.8225V40.7412V40.6485V40.5673V40.4745V40.3875V40.2947V40.2135V40.1207V40.0279V39.9351V39.6335V39.5291V39.3493V39.2449V39.1521V39.0593V38.9781L461.396 38.8853V38.7925V38.7113V38.6185L461.425 38.5373L461.465 38.4445L461.5 38.3575L461.535 38.2763L461.575 38.1951L461.523 38.1197L461.57 38.0385L461.616 37.9631L461.662 37.8935L461.709 37.8181L461.755 37.7427L461.807 37.6673L461.865 37.5977L461.918 37.5223L461.976 37.4585L462.039 37.3947L462.092 37.3251L462.155 37.2613L462.219 37.1975L462.283 37.1453L462.358 37.0757L462.422 37.0235L462.498 36.9655L462.573 36.9191L462.643 36.8669L462.718 36.8205L462.793 36.7741L462.875 36.7277L462.956 36.6813L463.037 36.6349L463.124 36.6001L463.205 36.5595L463.298 36.5131H463.368L463.46 36.4841L463.547 36.4435H463.629L463.727 36.3797H463.82H463.901H463.994H464.087H464.179H464.272H464.359H464.452H464.545H464.939H465.044H465.235H465.328H465.426H465.508H465.6H465.693H465.774H465.861H465.943H466.024H466.105H466.18H466.262L466.349 36.4203L466.43 36.4551L466.511 36.4899L466.592 36.5363L466.679 36.5769L466.749 36.6233L466.836 36.6697L466.905 36.7103L466.992 36.7567L467.062 36.8147L467.137 36.8611L467.213 36.9191L467.282 36.9713L467.358 37.0351L467.433 37.0931L467.375 37.1627L467.311 37.2323L467.259 37.3019L467.19 37.3773L467.137 37.4527L467.079 37.5165L467.016 37.5919L466.963 37.6615L466.905 37.7311L466.842 37.8007L466.789 37.8761L466.726 37.9515L466.627 38.1197L466.575 38.1951L466.511 38.2647L466.453 38.3401L466.389 38.4039L466.331 38.4793L466.262 38.4213L466.186 38.3575L466.111 38.3111L466.047 38.2589L465.972 38.2125L465.896 38.1661L465.844 38.1197L465.757 38.0733L465.687 38.0385L465.612 37.9979H465.537H465.455L465.374 37.9689H465.293H465.2H465.107H465.015H464.916H464.527H464.446H464.353H464.272H464.185L464.104 37.9979L464.023 38.0327L463.942 38.0675L463.866 38.1139L463.791 38.1603L463.721 38.2067L463.658 38.2647L463.588 38.3169L463.524 38.3749L463.472 38.4387L463.408 38.5025L463.35 38.5779L463.304 38.6417L463.257 38.7171L463.217 38.7983L463.17 38.8737L463.13 38.9549L463.101 39.0419L463.066 39.1231V39.2159V39.3087V39.3899V39.4885V39.5813V39.9815V40.0627V40.1555V40.2367V40.3237V40.4049L463.095 40.4861V40.5615L463.136 40.6543L463.17 40.7355L463.217 40.8225L463.263 40.892L463.31 40.9675L463.362 41.0428L463.42 41.1066L463.484 41.1704L463.542 41.2342L463.605 41.2922L463.675 41.3444L463.75 41.4024L463.826 41.4488L463.895 41.4952L463.982 41.53L464.063 41.5706L464.145 41.6054H464.237H464.33H464.423H464.516H464.603H464.707H464.916H465.02H465.119H465.212H465.305H465.397L465.467 41.5996H465.554L465.635 41.5648L465.711 41.5242L465.792 41.4894L465.856 41.4546L465.931 41.4082V40.5209H464.609V39.1695H467.642V39.2797ZM469.069 43.1018H468.326L468.361 43.0206L468.396 42.9336L468.437 42.8524L468.471 42.7596L468.5 42.6784L468.535 42.5972L468.57 42.5102L468.611 42.429L468.645 42.3478L468.68 42.255L468.721 42.168L468.756 42.0868V42.0056L468.79 41.9186L468.831 41.8374L468.866 41.7446L468.901 41.6634L468.941 41.5822L468.976 41.4952L469.011 41.414L469.04 41.3328L469.075 41.24L469.115 41.1531L469.15 41.0718L469.185 40.9906L469.225 40.9037L469.26 40.8225L469.295 40.7297L469.324 40.6485L469.365 40.5615L469.399 40.4803L469.434 40.3991L469.475 40.3121L469.527 40.2077L469.562 40.1207L469.602 40.0395V39.9583L469.643 39.8713L469.678 39.7901L469.713 39.6973L469.753 39.6161L469.788 39.5291L469.823 39.4479L469.863 39.3667V39.2797L469.904 39.1985L469.939 39.1057L469.974 39.0245L470.014 38.9433L470.049 38.8563L470.084 38.7751L470.124 38.6939V38.6011L470.165 38.5141L470.2 38.4329L470.24 38.3517L470.275 38.2647L470.31 38.1835L470.351 38.0907L470.385 38.0095L470.414 37.9283L470.449 37.8413L470.484 37.7601L470.525 37.6789L470.559 37.5861L470.594 37.4991L470.635 37.4179L470.67 37.3367L470.699 37.2497L470.733 37.1685L470.768 37.0757L470.809 36.9945L470.844 36.9075L470.878 36.8263L470.919 36.7451L470.954 36.6581V36.5711L470.989 36.4841L471.029 36.4029L471.064 36.3217H472.763L472.798 36.4029L472.839 36.4841L472.874 36.5711L472.908 36.6581V36.7451L472.943 36.8263L472.984 36.9075L473.019 36.9945L473.059 37.0757L473.094 37.1685L473.129 37.2497L473.169 37.3367V37.4179L473.21 37.4991L473.245 37.5861L473.28 37.6789L473.32 37.7601L473.355 37.8413L473.39 37.9283L473.43 38.0095V38.0907L473.471 38.1835L473.506 38.2647L473.541 38.3517L473.581 38.4329L473.616 38.5141L473.651 38.6011L473.691 38.6939V38.7751L473.726 38.8563L473.761 38.9433L473.802 39.0245L473.836 39.1057L473.871 39.1985L473.912 39.2797L473.947 39.3667V39.4479L473.981 39.5291L474.016 39.6161L474.057 39.6973L474.092 39.7901L474.126 39.8713L474.167 39.9583L474.202 40.0395L474.231 40.1207L474.266 40.2077L474.3 40.2947L474.341 40.3817L474.376 40.4629L474.416 40.5441L474.451 40.6311L474.486 40.7123L474.515 40.805L474.55 40.8862L474.59 40.9732L474.625 41.0544L474.66 41.1356L474.701 41.2226L474.735 41.3154L474.77 41.3966V41.4778L474.805 41.5648L474.846 41.646L474.88 41.7272L474.915 41.82L474.956 41.9012L474.991 41.9882L475.025 42.0694L475.327 42.1796L475.368 42.2666L475.402 42.3594L475.437 42.4406L475.478 42.5218L475.513 42.6088L475.547 42.69L475.588 42.7712V42.864L475.629 42.9452L475.663 43.0322L475.698 43.1134H473.831L473.796 43.0322V42.9452L473.755 42.864L473.691 42.7596V42.6784L473.657 42.5972L473.587 42.4928V42.4116L473.552 42.3304L473.512 42.2434V42.1622L473.477 42.0694L473.442 41.9882V41.9012L473.407 41.82H470.687L470.652 41.9012L470.623 41.9882L470.583 42.0694L470.548 42.1622L470.519 42.2434L470.484 42.3304L470.449 42.4116L470.42 42.4928L470.385 42.5798L470.345 42.661V42.7422L470.304 42.835L470.269 42.9162V43.0032L470.235 43.0844H469.069V43.1018ZM478.703 54.3131L469.22 51.0536H488.586L478.703 54.3131ZM490.215 41.6518V43.0844H484.856V36.3797H490.169V37.8877H486.614V38.9897H489.827V40.4397H486.614V41.5996H490.215V41.6518ZM486.579 27.007V12.6463C486.579 9.88552 487.942 8.51673 490.691 8.51673H492.332C495.082 8.51673 496.392 9.85072 496.392 12.6173V17.1587H493.092V12.8029C493.092 11.9155 492.68 11.5037 491.828 11.5037H491.248C491.072 11.4809 490.893 11.4989 490.725 11.5561C490.557 11.6134 490.404 11.7084 490.279 11.8339C490.153 11.9594 490.058 12.112 490.001 12.28C489.944 12.448 489.926 12.6269 489.949 12.8029V26.8446C489.925 27.021 489.942 27.2006 489.999 27.3693C490.056 27.5381 490.151 27.6915 490.276 27.8177C490.402 27.9438 490.555 28.0394 490.723 28.097C490.892 28.1545 491.071 28.1725 491.248 28.1496H491.88C492.733 28.1496 493.144 27.7378 493.144 26.8446V21.8276H496.462V27.007C496.462 29.7677 495.105 31.1365 492.356 31.1365H490.691C487.942 31.1597 486.579 29.7677 486.579 27.007ZM496.578 41.0196V41.24V41.3328V41.4314V41.5242V41.617V41.6982V41.791L496.537 41.878L496.503 41.9476L496.468 42.0346L496.421 42.1042L496.375 42.1796L496.317 42.255L496.271 42.3304L496.218 42.3942L496.155 42.458L496.097 42.516L496.027 42.5798L495.963 42.632L495.888 42.69L495.812 42.7364L495.737 42.7886L495.656 42.835L495.575 42.8698L495.493 42.9162L495.401 42.9568L495.308 42.9916H495.215H495.122H495.041H494.948H494.867H494.786H494.693H494.6H494.519H494.426H494.322H493.539H493.446H493.353H493.255H493.162H493.069H492.976H492.883H492.791H492.704H492.611H492.524H492.437H492.344L492.257 42.951H492.17H492.083L491.996 42.9162L491.909 42.8756L491.828 42.7596L491.747 42.7132L491.66 42.6784L491.567 42.6262L491.497 42.5798L491.41 42.5334L491.341 42.487L491.265 42.4406L491.19 42.3826L491.12 42.3304L491.045 42.2724L490.987 42.2202L490.923 42.1622L490.848 42.0984L490.906 42.023L490.969 41.9592L491.027 41.8838L491.091 41.8142L491.143 41.7446L491.201 41.675L491.265 41.5996L491.317 41.5358L491.381 41.4604L491.439 41.3966L491.503 41.3212L491.555 41.2458L491.613 41.182L491.677 41.1125L491.735 41.037L491.799 40.9732L491.851 40.8979L491.926 40.9558L492.008 41.0081L492.083 41.066L492.164 41.1182L492.24 41.1646L492.321 41.2226L492.396 41.269L492.477 41.3038L492.553 41.3502L492.634 41.385L492.715 41.4256L492.796 41.4604H492.883L492.965 41.4952H493.057H493.15H493.231H493.324H493.417H493.504H493.608H493.701H494.194H494.287H494.368H494.455H494.525L494.583 41.5996L494.658 41.5474L494.716 41.4778L494.751 41.4082L494.78 41.3212V41.1008L494.739 41.0081L494.693 40.9443L494.629 40.892L494.56 40.8341L494.467 40.7703L494.386 40.7297L494.293 40.6949L494.183 40.6485H494.119H494.043H493.962H493.881H493.788H493.695H493.591H493.504H493.4L493.307 40.4397H493.214H493.127L493.034 40.4107H492.947H492.86H492.773H492.692L492.611 40.3817L492.506 40.3411L492.419 40.3063L492.327 40.2715L492.234 40.2309L492.147 40.0279L492.054 39.9815L491.979 39.9351L491.897 39.8887L491.845 39.8597L491.77 39.8133L491.706 39.7553L491.642 39.6915L491.567 39.6045L491.515 39.5407L491.457 39.4769L491.41 39.4131L491.364 39.3377L491.329 39.2797L491.294 39.2159V39.1405V39.0593V38.9839V38.8911V38.8099V38.6997V38.6069V38.2009V38.1139V38.0211V37.9399V37.8587V37.7717V37.6905L491.329 37.6093L491.364 37.5223L491.404 37.4411L491.451 37.3599L491.497 37.2729L491.549 37.2033L491.607 37.1279L491.671 37.0525L491.735 36.9887L491.799 36.9133L491.874 36.8495L491.938 36.8031L492.008 36.7509L492.083 36.6929L492.158 36.6465L492.24 36.6001L492.321 36.5653L492.402 36.5189L492.489 36.4841L492.582 36.4551L492.669 36.4145L492.727 36.3797H492.796H492.883H492.965H493.057H493.139H493.231H493.307H493.4H493.487H493.887H493.985H494.084H494.281H494.374H494.473H494.565H494.647H494.739H494.832H494.913L495.006 36.4087H495.087H495.169L495.261 36.4435L495.348 36.4725L495.43 36.5073L495.511 36.5421L495.604 36.5827L495.685 36.6291L495.76 36.6639L495.841 36.7103L495.923 36.7567L495.998 36.8031L496.079 36.8611L496.155 36.9075L496.23 36.9597L496.3 37.0177L496.375 37.0699L496.323 37.1453L496.276 37.2207L496.218 37.2903L496.166 37.3657L496.108 37.4469L496.062 37.5223L496.01 37.5977L495.952 37.6731L495.905 37.7427L495.853 37.8181L495.795 37.8935L495.749 37.9689L495.696 38.0501L495.638 38.1255L495.586 38.1951L495.54 38.2705L495.482 38.3459L495.412 38.2879L495.325 38.2415L495.256 38.1951L495.18 38.1429L495.099 38.1023L495.047 38.1197H494.954L494.879 38.0849L494.797 38.0443L494.722 38.0095H494.641L494.565 37.9747H494.467L494.374 37.9457H494.281H494.188H494.096H494.009H493.916H493.823H493.742H493.539H493.434H493.342H493.26L493.191 37.9805L493.121 38.0211L493.04 38.0907L492.988 38.1777L492.947 38.2589V38.4909L492.994 38.5895L493.034 38.6475L493.098 38.7113L493.179 38.7577L493.255 38.8041L493.342 38.8389L493.446 38.8795L493.556 38.9143H493.632H493.701H493.788L493.869 38.9433H493.962L494.061 38.9723H494.165H494.264H494.362H494.455H494.56H494.652H494.739H494.832H494.913H495.006H495.093H495.174L495.273 39.0071L495.366 39.0535L495.459 39.0941L495.551 39.1347L495.633 39.1811L495.714 39.2275L495.789 39.2739L495.865 39.3319L495.934 39.3783L496.01 39.4421L496.085 39.5059L496.149 39.5813L496.213 39.6451L496.265 39.7205L496.323 39.8017L496.369 39.8771L496.416 39.9583L496.45 40.0337V40.1149V40.2019V40.2831V40.3759V40.4687V40.5615V41.0196H496.578Z" fill="white"/>
</g>
<defs>
<clipPath id="clip0_11464_118">
<rect width="505" height="60" fill="white"/>
</clipPath>
</defs>
</svg>
